# xmcd CD database file
#
# Track frame offsets:
#	150
#	8988
#	16850
#	27312
#	35388
#	39442
#	52356
#	63219
#	74133
#	106220
#	115432
#	123268
#	132663
#	163463
#	183250
#
# Disc length: 2459 seconds
#
# Revision: 2
# Processed by: cddbd v1.5.2PL0 Copyright (c) Steve Scherf et al.
# Submitted via: CDex 1.91
#
DISCID=da09990f
DTITLE=Audra McDonald - Lady Day At Emerson's Bar And Grill (1)
DYEAR=2014
DGENRE=Musical
TTITLE0=Introduction
TTITLE1=I Wonder Where Our Love Has Gone
TTITLE2=When a Woman Loves a Man
TTITLE3="I'm even glad to be back in Philly ..."
TTITLE4="I want to introduce my accompanist ..."
TTITLE5=What A Little Moonlight Can Do
TTITLE6="We got this contract ..."
TTITLE7=Crazy He Calls Me
TTITLE8="They used to be hangin' from the rafters ..."
TTITLE9=Gimme a Pig Foot (and a Bottle of Beer)
TTITLE10="That was in the early thirties ..."
TTITLE11=Baby Doll
TTITLE12="I better watch myself here ..."
TTITLE13=God Bless the Child
TTITLE14="That was for my mama ..."
EXTD=YEAR: 2014
EXTT0=
EXTT1=
EXTT2=
EXTT3=
EXTT4=
EXTT5=
EXTT6=
EXTT7=
EXTT8=
EXTT9=
EXTT10=
EXTT11=
EXTT12=
EXTT13=
EXTT14=
PLAYORDER=
